<?xml version="1.0" encoding="utf-8"?>
<!-- Generator: Adobe Illustrator 19.2.1, SVG Export Plug-In . SVG Version: 6.00 Build 0)  -->
<svg version="1.1" id="layer" xmlns="http://www.w3.org/2000/svg" xmlns:xlink="http://www.w3.org/1999/xlink" x="0px" y="0px"
	 viewBox="0 0 652 652" style="enable-background:new 0 0 652 652;" xml:space="preserve">
<style type="text/css">
	.st0{fill:#0066CC;}
</style>
<path class="st0" d="M617.6,380.9v-5.7h3.8c1.9,0,4,0.4,4,2.7c0,2.8-2.1,3-4.5,3 M617.6,383.2h3.2l4.8,7.9h3.1l-5.2-8
	c2.7-0.3,4.8-1.8,4.8-5c0-3.6-2.2-5.2-6.5-5.2h-7v18.3h2.8V383.2z M620.8,400c9.9,0,18.3-7.6,18.3-18c0-10.3-8.4-17.9-18.3-17.9
	c-10,0-18.4,7.6-18.4,17.9C602.4,392.4,610.9,400,620.8,400 M606.1,382c0-8.5,6.5-14.9,14.7-14.9c8.2,0,14.7,6.4,14.7,14.9
	c0,8.7-6.5,15-14.7,15C612.5,397,606.1,390.6,606.1,382"/>
<path class="st0" d="M193.4,400c3,0,5.5-2.4,5.5-5.5v-80.2c0-3-2.5-5.5-5.5-5.5H92.5c-2,0-3.7-1.6-3.7-3.6v-29.2
	c0-2,1.6-3.6,3.7-3.6l29.3,0c2,0,3.7,1.6,3.7,3.6v9.1c0,3,2.5,5.5,5.5,5.5h44c3,0,5.5-2.4,5.5-5.5v-25.5c0-3-2.5-5.5-5.5-5.5H39.3
	c-3,0-5.5,2.4-5.5,5.5v62c0,3,2.5,5.5,5.5,5.5h100.9c2,0,3.7,1.6,3.7,3.7v47.4c0,2-1.6,3.6-3.7,3.6h-66c-2,0-3.7-1.6-3.7-3.6v-27.3
	c0-3-2.5-5.5-5.5-5.5H21c-3,0-5.5,2.4-5.5,5.5v43.7c0,3,2.5,5.5,5.5,5.5"/>
<path class="st0" d="M290.6,347.6c0-0.5,0.4-0.9,0.9-0.9c0.2,0,0.5,0.1,0.6,0.3c0.2,0.2,51.3,51,51.8,51.5c0.3,0.3,1.6,1.6,3.8,1.6
	h65.7c3,0,5.5-2.4,5.5-5.5v-43.7c0-3-2.5-5.5-5.5-5.5h-47.4c-2.1,0-3.5-1.2-3.8-1.5c-0.7-0.7-34.3-34.2-34.5-34.3
	c-0.2-0.2-0.3-0.4-0.3-0.6c0-0.3,0.1-0.5,0.3-0.6c0.2-0.2,15.8-15.7,16.1-16c0.9-0.9,2.3-1.6,3.9-1.6h47.5c3,0,5.5-2.4,5.5-5.5
	l0-25.5c0-3-2.5-5.5-5.5-5.5h-47.4c-2.2,0-3.5,1.3-3.8,1.6c-0.3,0.3-51.6,51.3-51.8,51.5c-0.2,0.2-0.4,0.3-0.6,0.3
	c-0.5,0-0.9-0.4-0.9-0.9l0-46.9c0-3-2.5-5.5-5.5-5.5h-53.2c-3,0-5.5,2.4-5.5,5.5v43.7c0,3,2.5,5.5,5.5,5.5c2,0,3.7,1.6,3.7,3.6v29.2
	c0,2-1.6,3.6-3.7,3.6c-3,0-5.5,2.4-5.5,5.5v43.7c0,3,2.5,5.5,5.5,5.5h53.2c3,0,5.5-2.5,5.5-5.5"/>
<path class="st0" d="M505.2,400c3,0,5.5-2.4,5.5-5.5v-43.7c0-3-2.5-5.5-5.5-5.5c-2,0-3.7-1.6-3.7-3.6v-10.9c0-2,1.7-3.7,3.7-3.7
	h20.1c2,0,3.7,1.6,3.7,3.7c0,3,2.5,5.5,5.5,5.5h44.1c3,0,5.5-2.4,5.5-5.5v-25.5c0-3-2.5-5.5-5.5-5.5h-44.1c-3,0-5.5,2.4-5.5,5.5
	c0,2-1.6,3.6-3.7,3.6l-20.1,0c-2,0-3.7-1.6-3.7-3.6v-29.2c0-2,1.7-3.6,3.7-3.6H562c2,0,3.7,1.6,3.7,3.6v9.1c0,3,2.5,5.5,5.5,5.5
	h62.4c3,0,5.5-2.4,5.5-5.5v-25.5c0-3-2.5-5.5-5.5-5.5H452c-3,0-5.5,2.4-5.5,5.5v43.7c0,3,2.5,5.5,5.5,5.5c2,0,3.7,1.6,3.7,3.6v29.2
	c0,2-1.6,3.6-3.7,3.6c-3,0-5.5,2.4-5.5,5.5v43.7c0,3,2.5,5.5,5.5,5.5"/>
</svg>
